<mxfile host="Electron" agent="Mozilla/5.0 (Macintosh; Intel Mac OS X 10_15_7) AppleWebKit/537.36 (KHTML, like Gecko) draw.io/24.7.8 Chrome/128.0.6613.36 Electron/32.0.1 Safari/537.36" version="24.7.8">
  <diagram name="Seite-1" id="O8GddWhcbF4NDvKM5EmY">
    <mxGraphModel dx="2541" dy="1305" grid="1" gridSize="10" guides="1" tooltips="1" connect="1" arrows="1" fold="1" page="1" pageScale="1" pageWidth="827" pageHeight="1169" math="0" shadow="0">
      <root>
        <mxCell id="0" />
        <mxCell id="1" parent="0" />
        <mxCell id="lPej12Bno3lJLsPGT7YB-138" value="LG 1-1: Discuss Definitions of Software Architecture" style="whiteSpace=wrap;strokeWidth=2;fillColor=#fff2cc;strokeColor=#d6b656;" parent="1" vertex="1">
          <mxGeometry x="77" y="160" width="403" height="50" as="geometry" />
        </mxCell>
        <mxCell id="lPej12Bno3lJLsPGT7YB-139" value="LG 1-2: Understand and Explain the Goals and Benefits of Software Architecture" style="whiteSpace=wrap;strokeWidth=2;fillColor=#fff2cc;strokeColor=#d6b656;" parent="1" vertex="1">
          <mxGeometry x="77" y="240" width="403" height="46" as="geometry" />
        </mxCell>
        <mxCell id="lPej12Bno3lJLsPGT7YB-140" value="LG 1-4: Understand Software Architects&#39; Tasks and Responsibilities" style="whiteSpace=wrap;strokeWidth=2;fillColor=#fff2cc;strokeColor=#d6b656;" parent="1" vertex="1">
          <mxGeometry x="78" y="320" width="402" height="43" as="geometry" />
        </mxCell>
        <mxCell id="lPej12Bno3lJLsPGT7YB-141" value="LG 1-5: Relate the Role of Software Architects to Other Stakeholders" style="whiteSpace=wrap;strokeWidth=2;fillColor=#fff2cc;strokeColor=#d6b656;" parent="1" vertex="1">
          <mxGeometry x="76" y="440" width="404" height="50" as="geometry" />
        </mxCell>
        <mxCell id="lPej12Bno3lJLsPGT7YB-142" value="LG 1-6: Explain the Correlation between Development Approaches and Software Architecture" style="whiteSpace=wrap;strokeWidth=2;fillColor=#fff2cc;strokeColor=#d6b656;" parent="1" vertex="1">
          <mxGeometry x="66" y="1326" width="404" height="54" as="geometry" />
        </mxCell>
        <mxCell id="lPej12Bno3lJLsPGT7YB-143" value="LG 1-7: Differentiate between Short- and Long-Term Goals" style="whiteSpace=wrap;strokeWidth=2;fillColor=#fff2cc;strokeColor=#d6b656;" parent="1" vertex="1">
          <mxGeometry x="70" y="524" width="406" height="40" as="geometry" />
        </mxCell>
        <mxCell id="lPej12Bno3lJLsPGT7YB-144" value="LG 1-8: Distinguish Explicit Statements and Implicit Assumptions" style="whiteSpace=wrap;strokeWidth=2;fillColor=#fff2cc;strokeColor=#d6b656;" parent="1" vertex="1">
          <mxGeometry x="73" y="674" width="406" height="40" as="geometry" />
        </mxCell>
        <mxCell id="lPej12Bno3lJLsPGT7YB-145" value="LG 1-9: Responsibilities of Software Architects within the Greater Architectural Context" style="whiteSpace=wrap;strokeWidth=2;fillColor=#fff2cc;strokeColor=#d6b656;" parent="1" vertex="1">
          <mxGeometry x="73" y="380" width="410" height="45" as="geometry" />
        </mxCell>
        <mxCell id="lPej12Bno3lJLsPGT7YB-146" value="LG 1-11: Challenges of Distributed Systems" style="whiteSpace=wrap;strokeWidth=2;fillColor=#fff2cc;strokeColor=#d6b656;" parent="1" vertex="1">
          <mxGeometry x="81" y="1940" width="404" height="44" as="geometry" />
        </mxCell>
        <mxCell id="lPej12Bno3lJLsPGT7YB-147" value="LG 2-1: Select and Use Approaches and Heuristics for Architecture Development" style="whiteSpace=wrap;strokeWidth=2;fillColor=#ffe6cc;strokeColor=#d79b00;" parent="1" vertex="1">
          <mxGeometry x="67" y="1255" width="406" height="40" as="geometry" />
        </mxCell>
        <mxCell id="lPej12Bno3lJLsPGT7YB-148" value="LG 2-2: Design Software Architectures" style="whiteSpace=wrap;strokeWidth=2;fillColor=#ffe6cc;strokeColor=#d79b00;" parent="1" vertex="1">
          <mxGeometry x="67" y="1185" width="406" height="40" as="geometry" />
        </mxCell>
        <mxCell id="lPej12Bno3lJLsPGT7YB-149" value="LG 2-3: Identify and Consider Factors Influencing Software Architecture" style="whiteSpace=wrap;strokeWidth=2;fillColor=#ffe6cc;strokeColor=#d79b00;" parent="1" vertex="1">
          <mxGeometry x="67" y="772.5" width="410" height="50" as="geometry" />
        </mxCell>
        <mxCell id="lPej12Bno3lJLsPGT7YB-150" value="LG 2-4: Design and Implement Cross-Cutting Concepts" style="whiteSpace=wrap;strokeWidth=2;fillColor=#ffe6cc;strokeColor=#d79b00;" parent="1" vertex="1">
          <mxGeometry x="81.5" y="1790" width="394" height="40" as="geometry" />
        </mxCell>
        <mxCell id="lPej12Bno3lJLsPGT7YB-151" value="LG 2-5: Describe, Explain and Appropriately Apply Important Solution Patterns" style="whiteSpace=wrap;strokeWidth=2;fillColor=#ffe6cc;strokeColor=#d79b00;" parent="1" vertex="1">
          <mxGeometry x="66.5" y="1640" width="403" height="40" as="geometry" />
        </mxCell>
        <mxCell id="lPej12Bno3lJLsPGT7YB-152" value="LG 2-6: Explain and Use Design Principles" style="whiteSpace=wrap;strokeWidth=2;fillColor=#ffe6cc;strokeColor=#d79b00;" parent="1" vertex="1">
          <mxGeometry x="73" y="1425" width="404" height="50" as="geometry" />
        </mxCell>
        <mxCell id="lPej12Bno3lJLsPGT7YB-153" value="LG 2-7: Manage Dependencies between Building Blocks" style="whiteSpace=wrap;strokeWidth=2;fillColor=#ffe6cc;strokeColor=#d79b00;" parent="1" vertex="1">
          <mxGeometry x="74" y="1492" width="406" height="50" as="geometry" />
        </mxCell>
        <mxCell id="lPej12Bno3lJLsPGT7YB-154" value="LG 2-9: Design and Define Interfaces" style="whiteSpace=wrap;strokeWidth=2;fillColor=#ffe6cc;strokeColor=#d79b00;" parent="1" vertex="1">
          <mxGeometry x="66" y="1570" width="414" height="40" as="geometry" />
        </mxCell>
        <mxCell id="lPej12Bno3lJLsPGT7YB-155" value="LG 2-10: Know Fundamental Principles of Software Deployment" style="whiteSpace=wrap;strokeWidth=2;fillColor=#ffe6cc;strokeColor=#d79b00;" parent="1" vertex="1">
          <mxGeometry x="74" y="1863.75" width="413" height="46.5" as="geometry" />
        </mxCell>
        <mxCell id="lPej12Bno3lJLsPGT7YB-156" value="LG 3-1: Explain and Consider the Requirements of Technical Documentation" style="whiteSpace=wrap;strokeWidth=2;fillColor=#d5e8d4;strokeColor=#82b366;" parent="1" vertex="1">
          <mxGeometry x="76" y="2060" width="446" height="46" as="geometry" />
        </mxCell>
        <mxCell id="lPej12Bno3lJLsPGT7YB-157" value="LG 3-2: Describe and Communicate Software Architectures" style="whiteSpace=wrap;strokeWidth=2;fillColor=#d5e8d4;strokeColor=#82b366;" parent="1" vertex="1">
          <mxGeometry x="86" y="2160" width="434" height="50" as="geometry" />
        </mxCell>
        <mxCell id="lPej12Bno3lJLsPGT7YB-158" value="LG 3-3: Explain and Apply Notations/Models to Describe Software Architecture" style="whiteSpace=wrap;strokeWidth=2;fillColor=#d5e8d4;strokeColor=#82b366;" parent="1" vertex="1">
          <mxGeometry x="86" y="2270" width="444" height="50" as="geometry" />
        </mxCell>
        <mxCell id="lPej12Bno3lJLsPGT7YB-159" value="LG 3-4: Explain and Use Architectural Views" style="whiteSpace=wrap;strokeWidth=2;fillColor=#d5e8d4;strokeColor=#82b366;" parent="1" vertex="1">
          <mxGeometry x="86" y="2370" width="445" height="40" as="geometry" />
        </mxCell>
        <mxCell id="lPej12Bno3lJLsPGT7YB-160" value="LG 3-6: Document and Communicate Cross-Cutting Concepts" style="whiteSpace=wrap;strokeWidth=2;fillColor=#d5e8d4;strokeColor=#82b366;" parent="1" vertex="1">
          <mxGeometry x="84" y="2630" width="449" height="34" as="geometry" />
        </mxCell>
        <mxCell id="lPej12Bno3lJLsPGT7YB-161" value="LG 3-7: Describe Interfaces" style="whiteSpace=wrap;strokeWidth=2;fillColor=#d5e8d4;strokeColor=#82b366;" parent="1" vertex="1">
          <mxGeometry x="88.5" y="2550" width="440" height="40" as="geometry" />
        </mxCell>
        <mxCell id="lPej12Bno3lJLsPGT7YB-162" value="LG 3-8: Explain and Document Architectural Decisions" style="whiteSpace=wrap;strokeWidth=2;fillColor=#d5e8d4;strokeColor=#82b366;" parent="1" vertex="1">
          <mxGeometry x="84" y="2700" width="452" height="40" as="geometry" />
        </mxCell>
        <mxCell id="lPej12Bno3lJLsPGT7YB-163" value="LG 3-9: Know Additional Resources and Tools for Documentation" style="whiteSpace=wrap;strokeWidth=2;fillColor=#d5e8d4;strokeColor=#82b366;" parent="1" vertex="1">
          <mxGeometry x="88" y="2780" width="456.5" height="51" as="geometry" />
        </mxCell>
        <mxCell id="lPej12Bno3lJLsPGT7YB-164" value="LG 4-1: Discuss Quality Models and Quality Characteristics" style="whiteSpace=wrap;strokeWidth=2;fillColor=#dae8fc;strokeColor=#6c8ebf;" parent="1" vertex="1">
          <mxGeometry x="48" y="860" width="431" height="34" as="geometry" />
        </mxCell>
        <mxCell id="lPej12Bno3lJLsPGT7YB-165" value="LG 4-2: Clarify Quality Requirements for Software Architectures" style="whiteSpace=wrap;strokeWidth=2;fillColor=#dae8fc;strokeColor=#6c8ebf;" parent="1" vertex="1">
          <mxGeometry x="44" y="920" width="431" height="34" as="geometry" />
        </mxCell>
        <mxCell id="lPej12Bno3lJLsPGT7YB-166" value="LG 4-3: Qualitative Analysis of Software Architectures (part)" style="whiteSpace=wrap;strokeWidth=2;fillColor=#dae8fc;strokeColor=#6c8ebf;" parent="1" vertex="1">
          <mxGeometry x="80" y="2974" width="400" height="34" as="geometry" />
        </mxCell>
        <mxCell id="lPej12Bno3lJLsPGT7YB-167" value="LG 4-4: Quantitative Evaluation of Software Architectures (part)" style="whiteSpace=wrap;strokeWidth=2;fillColor=#dae8fc;strokeColor=#6c8ebf;" parent="1" vertex="1">
          <mxGeometry x="55" y="1041" width="430" height="34" as="geometry" />
        </mxCell>
        <mxCell id="lPej12Bno3lJLsPGT7YB-168" value="LG 5-1: Know the Relation between Requirements, Constraints, and Solutions" style="whiteSpace=wrap;strokeWidth=2;fillColor=#f5f5f5;fontColor=#333333;strokeColor=#666666;" parent="1" vertex="1">
          <mxGeometry x="66" y="3230" width="524" height="34" as="geometry" />
        </mxCell>
        <mxCell id="lPej12Bno3lJLsPGT7YB-169" value="LG 5-2: Know the Rationale of a Solution&#39;s Technical Implementation" style="whiteSpace=wrap;strokeWidth=2;fillColor=#f5f5f5;fontColor=#333333;strokeColor=#666666;" parent="1" vertex="1">
          <mxGeometry x="66.5" y="3310" width="523.5" height="34" as="geometry" />
        </mxCell>
        <mxCell id="lPej12Bno3lJLsPGT7YB-170" value="LG 01-01: Discuss Definitions of Software Architecture" style="whiteSpace=wrap;strokeWidth=2;" parent="1" vertex="1">
          <mxGeometry x="918" y="160" width="442" height="40" as="geometry" />
        </mxCell>
        <mxCell id="lPej12Bno3lJLsPGT7YB-171" value="LG 01-02: Understand and Explain the Goals and Benefits of Software Architecture" style="whiteSpace=wrap;strokeWidth=2;" parent="1" vertex="1">
          <mxGeometry x="922" y="240" width="438" height="40" as="geometry" />
        </mxCell>
        <mxCell id="lPej12Bno3lJLsPGT7YB-172" value="LG 01-03: Understand the Tasks and Responsibilities of Software Architects" style="whiteSpace=wrap;strokeWidth=2;" parent="1" vertex="1">
          <mxGeometry x="918" y="320" width="442" height="40" as="geometry" />
        </mxCell>
        <mxCell id="lPej12Bno3lJLsPGT7YB-173" value="LG 01-04: Distinction between Software Architecture and other Architectural Domains" style="whiteSpace=wrap;strokeWidth=2;" parent="1" vertex="1">
          <mxGeometry x="918" y="390" width="442" height="40" as="geometry" />
        </mxCell>
        <mxCell id="lPej12Bno3lJLsPGT7YB-174" value="LG 01-05: Relate the Role of Software Architects to Other Stakeholders" style="whiteSpace=wrap;strokeWidth=2;" parent="1" vertex="1">
          <mxGeometry x="918" y="460" width="449" height="40" as="geometry" />
        </mxCell>
        <mxCell id="lPej12Bno3lJLsPGT7YB-175" value="LG 01-06: Importance and Design of Data Models" style="whiteSpace=wrap;strokeWidth=2;" parent="1" vertex="1">
          <mxGeometry x="916" y="540" width="453" height="34" as="geometry" />
        </mxCell>
        <mxCell id="lPej12Bno3lJLsPGT7YB-176" value="LG 02-01: Understand Stakeholder Concerns" style="whiteSpace=wrap;strokeWidth=2;" parent="1" vertex="1">
          <mxGeometry x="915.75" y="601" width="438" height="43" as="geometry" />
        </mxCell>
        <mxCell id="lPej12Bno3lJLsPGT7YB-177" value="LG 02-02: Identify and Consider Requirements and Constraints" style="whiteSpace=wrap;strokeWidth=2;" parent="1" vertex="1">
          <mxGeometry x="922" y="775" width="438" height="45" as="geometry" />
        </mxCell>
        <mxCell id="lPej12Bno3lJLsPGT7YB-178" value="LG 02-03: Understand and Explain Software System Qualities" style="whiteSpace=wrap;strokeWidth=2;" parent="1" vertex="1">
          <mxGeometry x="919" y="844" width="450" height="34" as="geometry" />
        </mxCell>
        <mxCell id="lPej12Bno3lJLsPGT7YB-179" value="LG 02-04: Formulate Requirements on Qualities" style="whiteSpace=wrap;strokeWidth=2;" parent="1" vertex="1">
          <mxGeometry x="918" y="907" width="443" height="40" as="geometry" />
        </mxCell>
        <mxCell id="lPej12Bno3lJLsPGT7YB-180" value="LG 02-05: Prefer Explicit Statements over Implicit Assumptions" style="whiteSpace=wrap;strokeWidth=2;" parent="1" vertex="1">
          <mxGeometry x="917.5" y="674" width="444" height="40" as="geometry" />
        </mxCell>
        <mxCell id="lPej12Bno3lJLsPGT7YB-181" value="LG 03-01: Fulfilling Requirements through Architecture" style="whiteSpace=wrap;strokeWidth=2;" parent="1" vertex="1">
          <mxGeometry x="917.5" y="1035" width="459" height="40" as="geometry" />
        </mxCell>
        <mxCell id="lPej12Bno3lJLsPGT7YB-182" value="LG 03-02: Design Software Architectures" style="whiteSpace=wrap;strokeWidth=2;" parent="1" vertex="1">
          <mxGeometry x="911" y="1185" width="459" height="35" as="geometry" />
        </mxCell>
        <mxCell id="lPej12Bno3lJLsPGT7YB-183" value="LG 03-03: Select and Use Approaches and Heuristics for Architecture Development" style="whiteSpace=wrap;strokeWidth=2;" parent="1" vertex="1">
          <mxGeometry x="911" y="1250" width="459" height="50" as="geometry" />
        </mxCell>
        <mxCell id="lPej12Bno3lJLsPGT7YB-184" value="LG 03-04: Explain and Use Design Principles" style="whiteSpace=wrap;strokeWidth=2;" parent="1" vertex="1">
          <mxGeometry x="916" y="1430" width="459" height="40" as="geometry" />
        </mxCell>
        <mxCell id="lPej12Bno3lJLsPGT7YB-185" value="LG 03-05: Correlation between Feedback Loops and Risks" style="whiteSpace=wrap;strokeWidth=2;" parent="1" vertex="1">
          <mxGeometry x="914.5" y="1333" width="455.5" height="40" as="geometry" />
        </mxCell>
        <mxCell id="lPej12Bno3lJLsPGT7YB-186" value="LG 03-06: Manage Dependencies between Building Blocks" style="whiteSpace=wrap;strokeWidth=2;" parent="1" vertex="1">
          <mxGeometry x="911" y="1500" width="459" height="34" as="geometry" />
        </mxCell>
        <mxCell id="lPej12Bno3lJLsPGT7YB-187" value="LG 03-07: Design and Define Interfaces" style="whiteSpace=wrap;strokeWidth=2;" parent="1" vertex="1">
          <mxGeometry x="911" y="1570" width="459" height="40" as="geometry" />
        </mxCell>
        <mxCell id="lPej12Bno3lJLsPGT7YB-188" value="LG 03-08: Describe, Explain and Apply Important Architectural Patterns" style="whiteSpace=wrap;strokeWidth=2;" parent="1" vertex="1">
          <mxGeometry x="911" y="1636" width="469" height="44" as="geometry" />
        </mxCell>
        <mxCell id="lPej12Bno3lJLsPGT7YB-189" value="LG 03-09: Describe, Explain and Apply Important Design Patterns" style="whiteSpace=wrap;strokeWidth=2;" parent="1" vertex="1">
          <mxGeometry x="911" y="1710" width="479" height="34" as="geometry" />
        </mxCell>
        <mxCell id="lPej12Bno3lJLsPGT7YB-190" value="LG 03-10: Identify, Design and Implement Cross-Cutting Concerns" style="whiteSpace=wrap;strokeWidth=2;" parent="1" vertex="1">
          <mxGeometry x="911" y="1790" width="479" height="40" as="geometry" />
        </mxCell>
        <mxCell id="lPej12Bno3lJLsPGT7YB-191" value="LG 03-11: Know Fundamental Principles of Software Deployment" style="whiteSpace=wrap;strokeWidth=2;" parent="1" vertex="1">
          <mxGeometry x="911" y="1870" width="477" height="34" as="geometry" />
        </mxCell>
        <mxCell id="lPej12Bno3lJLsPGT7YB-192" value="LG 03-12: Know the Challenges of Distributed Systems" style="whiteSpace=wrap;strokeWidth=2;" parent="1" vertex="1">
          <mxGeometry x="913" y="1940" width="487" height="40" as="geometry" />
        </mxCell>
        <mxCell id="lPej12Bno3lJLsPGT7YB-193" value="LG 04-01: Explain and Consider the Requirements of Technical Documentation" style="whiteSpace=wrap;strokeWidth=2;" parent="1" vertex="1">
          <mxGeometry x="911" y="2056" width="499" height="50" as="geometry" />
        </mxCell>
        <mxCell id="lPej12Bno3lJLsPGT7YB-194" value="LG 04-02: Describe and Communicate Software Architectures" style="whiteSpace=wrap;strokeWidth=2;" parent="1" vertex="1">
          <mxGeometry x="915.75" y="2160" width="494.25" height="40" as="geometry" />
        </mxCell>
        <mxCell id="lPej12Bno3lJLsPGT7YB-195" value="LG 04-03: Explain and Apply Notations/Models to Describe Software Architecture" style="whiteSpace=wrap;strokeWidth=2;" parent="1" vertex="1">
          <mxGeometry x="919" y="2280" width="494" height="50" as="geometry" />
        </mxCell>
        <mxCell id="lPej12Bno3lJLsPGT7YB-196" value="LG 04-04: Learning Goal not Found" style="whiteSpace=wrap;strokeWidth=2;" parent="1" vertex="1">
          <mxGeometry x="918" y="2390" width="502" height="44" as="geometry" />
        </mxCell>
        <mxCell id="lPej12Bno3lJLsPGT7YB-197" value="LG 04-05: Explain and Use Architectural Views" style="whiteSpace=wrap;strokeWidth=2;" parent="1" vertex="1">
          <mxGeometry x="921.5" y="2460" width="488" height="40" as="geometry" />
        </mxCell>
        <mxCell id="lPej12Bno3lJLsPGT7YB-198" value="LG 04-06: Document Interfaces" style="whiteSpace=wrap;strokeWidth=2;" parent="1" vertex="1">
          <mxGeometry x="922" y="2550" width="488" height="40" as="geometry" />
        </mxCell>
        <mxCell id="lPej12Bno3lJLsPGT7YB-199" value="LG 04-07: Document and Communicate Cross-Cutting Concerns" style="whiteSpace=wrap;strokeWidth=2;" parent="1" vertex="1">
          <mxGeometry x="922" y="2630" width="508" height="40" as="geometry" />
        </mxCell>
        <mxCell id="lPej12Bno3lJLsPGT7YB-200" value="LG 04-08: Explain and Document Architectural Decisions" style="whiteSpace=wrap;strokeWidth=2;" parent="1" vertex="1">
          <mxGeometry x="921.5" y="2700" width="508" height="40" as="geometry" />
        </mxCell>
        <mxCell id="lPej12Bno3lJLsPGT7YB-201" value="LG 04-09: Know Additional Resources and Tools for Documentation" style="whiteSpace=wrap;strokeWidth=2;" parent="1" vertex="1">
          <mxGeometry x="919" y="2785.5" width="508" height="40" as="geometry" />
        </mxCell>
        <mxCell id="lPej12Bno3lJLsPGT7YB-203" value="LG 05-02: Analyze the Qualities of a Software System" style="whiteSpace=wrap;strokeWidth=2;" parent="1" vertex="1">
          <mxGeometry x="921.5" y="3020" width="518.5" height="34" as="geometry" />
        </mxCell>
        <mxCell id="lPej12Bno3lJLsPGT7YB-205" value="LG 06-01: Know the Relation between Requirements, Constraints, and Solutions" style="whiteSpace=wrap;strokeWidth=2;" parent="1" vertex="1">
          <mxGeometry x="911" y="3230" width="539" height="34" as="geometry" />
        </mxCell>
        <mxCell id="lPej12Bno3lJLsPGT7YB-206" value="LG 06-02: Understand the technical implementation of a solution" style="whiteSpace=wrap;strokeWidth=2;" parent="1" vertex="1">
          <mxGeometry x="911" y="3310" width="539" height="34" as="geometry" />
        </mxCell>
        <mxCell id="lPej12Bno3lJLsPGT7YB-207" value="Data models" style="whiteSpace=wrap;strokeWidth=2;fillColor=#d5e8d4;strokeColor=#82b366;" parent="1" vertex="1">
          <mxGeometry x="1455" y="430" width="103" height="34" as="geometry" />
        </mxCell>
        <mxCell id="lPej12Bno3lJLsPGT7YB-208" value="Products and sums in data modelling" style="whiteSpace=wrap;strokeWidth=2;fillColor=#d5e8d4;strokeColor=#82b366;" parent="1" vertex="1">
          <mxGeometry x="1455" y="490" width="277" height="34" as="geometry" />
        </mxCell>
        <mxCell id="lPej12Bno3lJLsPGT7YB-209" value="Decoupling data models" style="whiteSpace=wrap;strokeWidth=2;fillColor=#d5e8d4;strokeColor=#82b366;" parent="1" vertex="1">
          <mxGeometry x="1455" y="551" width="186" height="34" as="geometry" />
        </mxCell>
        <mxCell id="lPej12Bno3lJLsPGT7YB-210" value="System architecture" style="whiteSpace=wrap;strokeWidth=2;fillColor=#d5e8d4;strokeColor=#82b366;" parent="1" vertex="1">
          <mxGeometry x="1455" y="610" width="159" height="34" as="geometry" />
        </mxCell>
        <mxCell id="lPej12Bno3lJLsPGT7YB-211" value="Stakeholder concerns" style="whiteSpace=wrap;strokeWidth=2;fillColor=#d5e8d4;strokeColor=#82b366;" parent="1" vertex="1">
          <mxGeometry x="1455" y="680" width="168" height="34" as="geometry" />
        </mxCell>
        <mxCell id="lPej12Bno3lJLsPGT7YB-212" value="Stakeholder interviews" style="whiteSpace=wrap;strokeWidth=2;fillColor=#d5e8d4;strokeColor=#82b366;" parent="1" vertex="1">
          <mxGeometry x="1455" y="741" width="179" height="34" as="geometry" />
        </mxCell>
        <mxCell id="lPej12Bno3lJLsPGT7YB-213" value="Static and dynamic coupling" style="whiteSpace=wrap;strokeWidth=2;fillColor=#d5e8d4;strokeColor=#82b366;" parent="1" vertex="1">
          <mxGeometry x="1537" y="1450" width="217" height="34" as="geometry" />
        </mxCell>
        <mxCell id="lPej12Bno3lJLsPGT7YB-214" value="Efferent and afferent coupling" style="whiteSpace=wrap;strokeWidth=2;fillColor=#d5e8d4;strokeColor=#82b366;" parent="1" vertex="1">
          <mxGeometry x="1537" y="1508" width="234" height="34" as="geometry" />
        </mxCell>
        <mxCell id="lPej12Bno3lJLsPGT7YB-216" value="SysML" style="whiteSpace=wrap;strokeWidth=2;fillColor=#d5e8d4;strokeColor=#82b366;" parent="1" vertex="1">
          <mxGeometry x="1590" y="2250" width="73" height="40" as="geometry" />
        </mxCell>
        <mxCell id="lPej12Bno3lJLsPGT7YB-217" value="C4" style="whiteSpace=wrap;strokeWidth=2;fillColor=#d5e8d4;strokeColor=#82b366;" parent="1" vertex="1">
          <mxGeometry x="1590" y="2320" width="73" height="40" as="geometry" />
        </mxCell>
        <mxCell id="lPej12Bno3lJLsPGT7YB-218" value="Unexpected situations" style="whiteSpace=wrap;strokeWidth=2;fillColor=#d5e8d4;strokeColor=#82b366;" parent="1" vertex="1">
          <mxGeometry x="1580" y="2411" width="174" height="34" as="geometry" />
        </mxCell>
        <mxCell id="lPej12Bno3lJLsPGT7YB-221" value="LG 1-3: Software Architecture as Part of the Software Lifecycle" style="whiteSpace=wrap;strokeWidth=2;fillColor=#fff2cc;strokeColor=#d6b656;" parent="1" vertex="1">
          <mxGeometry x="-460" y="786" width="412" height="34" as="geometry" />
        </mxCell>
        <mxCell id="kNLLdn3Lz1MCtUCLmeeq-11" style="edgeStyle=orthogonalEdgeStyle;rounded=0;orthogonalLoop=1;jettySize=auto;html=1;entryX=0.5;entryY=1;entryDx=0;entryDy=0;" edge="1" parent="1" source="lPej12Bno3lJLsPGT7YB-223" target="lPej12Bno3lJLsPGT7YB-277">
          <mxGeometry relative="1" as="geometry" />
        </mxCell>
        <mxCell id="lPej12Bno3lJLsPGT7YB-223" value="SOLID principles (except Open/closed and Dependency inversion)" style="whiteSpace=wrap;strokeWidth=2;" parent="1" vertex="1">
          <mxGeometry x="-460" y="946" width="410" height="34" as="geometry" />
        </mxCell>
        <mxCell id="kNLLdn3Lz1MCtUCLmeeq-12" style="edgeStyle=orthogonalEdgeStyle;rounded=0;orthogonalLoop=1;jettySize=auto;html=1;entryX=0.25;entryY=1;entryDx=0;entryDy=0;" edge="1" parent="1" source="lPej12Bno3lJLsPGT7YB-224" target="lPej12Bno3lJLsPGT7YB-277">
          <mxGeometry relative="1" as="geometry" />
        </mxCell>
        <mxCell id="lPej12Bno3lJLsPGT7YB-224" value="Expect errors principle" style="whiteSpace=wrap;strokeWidth=2;" parent="1" vertex="1">
          <mxGeometry x="-459" y="1020" width="179" height="34" as="geometry" />
        </mxCell>
        <mxCell id="lPej12Bno3lJLsPGT7YB-225" value="" style="curved=1;startArrow=none;endArrow=block;exitX=1;exitY=0.49;entryX=0;entryY=0.49;rounded=0;" parent="1" source="lPej12Bno3lJLsPGT7YB-138" target="lPej12Bno3lJLsPGT7YB-170" edge="1">
          <mxGeometry relative="1" as="geometry">
            <Array as="points" />
          </mxGeometry>
        </mxCell>
        <mxCell id="lPej12Bno3lJLsPGT7YB-226" value="" style="curved=1;startArrow=none;endArrow=block;exitX=1;exitY=0.48;entryX=0;entryY=0.48;rounded=0;" parent="1" source="lPej12Bno3lJLsPGT7YB-139" target="lPej12Bno3lJLsPGT7YB-171" edge="1">
          <mxGeometry relative="1" as="geometry">
            <Array as="points" />
          </mxGeometry>
        </mxCell>
        <mxCell id="lPej12Bno3lJLsPGT7YB-227" value="" style="curved=1;startArrow=none;endArrow=block;exitX=1;exitY=0.49;entryX=0;entryY=0.49;rounded=0;" parent="1" source="lPej12Bno3lJLsPGT7YB-140" target="lPej12Bno3lJLsPGT7YB-172" edge="1">
          <mxGeometry relative="1" as="geometry">
            <Array as="points" />
          </mxGeometry>
        </mxCell>
        <mxCell id="lPej12Bno3lJLsPGT7YB-228" value="" style="curved=1;startArrow=none;endArrow=block;exitX=1;exitY=0.48;entryX=0;entryY=0.48;rounded=0;" parent="1" source="lPej12Bno3lJLsPGT7YB-145" target="lPej12Bno3lJLsPGT7YB-173" edge="1">
          <mxGeometry relative="1" as="geometry">
            <Array as="points" />
          </mxGeometry>
        </mxCell>
        <mxCell id="lPej12Bno3lJLsPGT7YB-229" value="" style="curved=1;startArrow=none;endArrow=block;exitX=1;exitY=0.48;entryX=0;entryY=0.48;rounded=0;" parent="1" source="lPej12Bno3lJLsPGT7YB-141" target="lPej12Bno3lJLsPGT7YB-174" edge="1">
          <mxGeometry relative="1" as="geometry">
            <Array as="points" />
          </mxGeometry>
        </mxCell>
        <mxCell id="lPej12Bno3lJLsPGT7YB-230" value="" style="startArrow=none;endArrow=block;exitX=0;exitY=0.5;entryX=1;entryY=0.25;rounded=0;exitDx=0;exitDy=0;entryDx=0;entryDy=0;" parent="1" source="lPej12Bno3lJLsPGT7YB-207" target="lPej12Bno3lJLsPGT7YB-175" edge="1">
          <mxGeometry relative="1" as="geometry" />
        </mxCell>
        <mxCell id="lPej12Bno3lJLsPGT7YB-231" value="" style="startArrow=none;endArrow=block;exitX=0;exitY=0.5;rounded=0;exitDx=0;exitDy=0;entryX=1;entryY=0.5;entryDx=0;entryDy=0;" parent="1" source="lPej12Bno3lJLsPGT7YB-208" target="lPej12Bno3lJLsPGT7YB-175" edge="1">
          <mxGeometry relative="1" as="geometry">
            <mxPoint x="1372" y="574" as="targetPoint" />
          </mxGeometry>
        </mxCell>
        <mxCell id="lPej12Bno3lJLsPGT7YB-232" value="" style="startArrow=none;endArrow=block;rounded=0;entryX=1;entryY=0.5;entryDx=0;entryDy=0;" parent="1" target="lPej12Bno3lJLsPGT7YB-175" edge="1">
          <mxGeometry relative="1" as="geometry">
            <mxPoint x="1462" y="574" as="sourcePoint" />
            <mxPoint x="1372" y="579" as="targetPoint" />
          </mxGeometry>
        </mxCell>
        <mxCell id="lPej12Bno3lJLsPGT7YB-233" value="" style="startArrow=none;endArrow=block;exitX=0;exitY=0.5;entryX=1;entryY=0.75;rounded=0;entryDx=0;entryDy=0;exitDx=0;exitDy=0;" parent="1" source="lPej12Bno3lJLsPGT7YB-210" target="lPej12Bno3lJLsPGT7YB-175" edge="1">
          <mxGeometry relative="1" as="geometry" />
        </mxCell>
        <mxCell id="lPej12Bno3lJLsPGT7YB-234" value="" style="startArrow=none;endArrow=block;entryX=1;entryY=0.5;rounded=0;entryDx=0;entryDy=0;exitX=0;exitY=0.5;exitDx=0;exitDy=0;" parent="1" source="lPej12Bno3lJLsPGT7YB-211" target="lPej12Bno3lJLsPGT7YB-176" edge="1">
          <mxGeometry relative="1" as="geometry">
            <mxPoint x="1450" y="724" as="sourcePoint" />
          </mxGeometry>
        </mxCell>
        <mxCell id="lPej12Bno3lJLsPGT7YB-235" value="" style="curved=1;startArrow=none;endArrow=block;exitX=0;exitY=0.5;entryX=1;entryY=0.5;rounded=0;entryDx=0;entryDy=0;exitDx=0;exitDy=0;" parent="1" source="lPej12Bno3lJLsPGT7YB-212" target="lPej12Bno3lJLsPGT7YB-176" edge="1">
          <mxGeometry relative="1" as="geometry">
            <Array as="points" />
          </mxGeometry>
        </mxCell>
        <mxCell id="lPej12Bno3lJLsPGT7YB-236" value="" style="dashed=1;dashPattern=2 3;startArrow=none;endArrow=block;exitX=1;exitY=0.48;entryX=0;entryY=0.5;rounded=0;entryDx=0;entryDy=0;" parent="1" source="lPej12Bno3lJLsPGT7YB-143" target="lPej12Bno3lJLsPGT7YB-176" edge="1">
          <mxGeometry relative="1" as="geometry" />
        </mxCell>
        <mxCell id="lPej12Bno3lJLsPGT7YB-237" value="" style="curved=1;startArrow=none;endArrow=block;exitX=1;exitY=0.48;entryX=0;entryY=0.48;rounded=0;" parent="1" source="lPej12Bno3lJLsPGT7YB-149" target="lPej12Bno3lJLsPGT7YB-177" edge="1">
          <mxGeometry relative="1" as="geometry">
            <Array as="points" />
          </mxGeometry>
        </mxCell>
        <mxCell id="lPej12Bno3lJLsPGT7YB-238" value="" style="curved=1;startArrow=none;endArrow=block;exitX=1;exitY=0.49;entryX=0;entryY=0.49;rounded=0;" parent="1" source="lPej12Bno3lJLsPGT7YB-164" target="lPej12Bno3lJLsPGT7YB-178" edge="1">
          <mxGeometry relative="1" as="geometry">
            <Array as="points" />
          </mxGeometry>
        </mxCell>
        <mxCell id="lPej12Bno3lJLsPGT7YB-239" value="" style="startArrow=none;endArrow=block;exitX=1;exitY=0.48;entryX=0;entryY=0.32;rounded=0;strokeWidth=1;" parent="1" source="lPej12Bno3lJLsPGT7YB-165" target="lPej12Bno3lJLsPGT7YB-179" edge="1">
          <mxGeometry relative="1" as="geometry" />
        </mxCell>
        <mxCell id="lPej12Bno3lJLsPGT7YB-240" value="" style="startArrow=none;endArrow=block;exitX=1;exitY=0.75;entryX=0;entryY=0.75;rounded=0;exitDx=0;exitDy=0;entryDx=0;entryDy=0;" parent="1" source="kNLLdn3Lz1MCtUCLmeeq-8" target="lPej12Bno3lJLsPGT7YB-179" edge="1">
          <mxGeometry relative="1" as="geometry" />
        </mxCell>
        <mxCell id="lPej12Bno3lJLsPGT7YB-241" value="" style="startArrow=none;endArrow=block;exitX=1;exitY=0.5;entryX=0.24;entryY=0.97;rounded=0;strokeWidth=1;exitDx=0;exitDy=0;" parent="1" source="lPej12Bno3lJLsPGT7YB-167" target="lPej12Bno3lJLsPGT7YB-179" edge="1">
          <mxGeometry relative="1" as="geometry" />
        </mxCell>
        <mxCell id="lPej12Bno3lJLsPGT7YB-242" value="" style="curved=1;startArrow=none;endArrow=block;exitX=1;exitY=0.49;entryX=0;entryY=0.49;rounded=0;" parent="1" source="lPej12Bno3lJLsPGT7YB-144" target="lPej12Bno3lJLsPGT7YB-180" edge="1">
          <mxGeometry relative="1" as="geometry">
            <Array as="points" />
          </mxGeometry>
        </mxCell>
        <mxCell id="lPej12Bno3lJLsPGT7YB-243" value="" style="startArrow=none;endArrow=block;exitX=1;exitY=0.5;entryX=0;entryY=0.48;rounded=0;strokeWidth=1;exitDx=0;exitDy=0;" parent="1" source="lPej12Bno3lJLsPGT7YB-167" target="lPej12Bno3lJLsPGT7YB-181" edge="1">
          <mxGeometry relative="1" as="geometry" />
        </mxCell>
        <mxCell id="lPej12Bno3lJLsPGT7YB-244" value="" style="curved=1;startArrow=none;endArrow=block;exitX=1;exitY=0.49;entryX=0;entryY=0.49;rounded=0;" parent="1" source="lPej12Bno3lJLsPGT7YB-148" target="lPej12Bno3lJLsPGT7YB-182" edge="1">
          <mxGeometry relative="1" as="geometry">
            <Array as="points" />
          </mxGeometry>
        </mxCell>
        <mxCell id="lPej12Bno3lJLsPGT7YB-245" value="" style="curved=1;startArrow=none;endArrow=block;exitX=1;exitY=0.48;entryX=0;entryY=0.48;rounded=0;" parent="1" source="lPej12Bno3lJLsPGT7YB-147" target="lPej12Bno3lJLsPGT7YB-183" edge="1">
          <mxGeometry relative="1" as="geometry">
            <Array as="points" />
          </mxGeometry>
        </mxCell>
        <mxCell id="lPej12Bno3lJLsPGT7YB-246" value="" style="curved=1;startArrow=none;endArrow=block;exitX=1;exitY=0.48;entryX=0;entryY=0.48;rounded=0;" parent="1" source="lPej12Bno3lJLsPGT7YB-152" target="lPej12Bno3lJLsPGT7YB-184" edge="1">
          <mxGeometry relative="1" as="geometry">
            <Array as="points" />
          </mxGeometry>
        </mxCell>
        <mxCell id="lPej12Bno3lJLsPGT7YB-247" value="" style="curved=1;startArrow=none;endArrow=block;exitX=1;exitY=0.49;entryX=0;entryY=0.49;rounded=0;" parent="1" source="lPej12Bno3lJLsPGT7YB-142" target="lPej12Bno3lJLsPGT7YB-185" edge="1">
          <mxGeometry relative="1" as="geometry">
            <Array as="points" />
          </mxGeometry>
        </mxCell>
        <mxCell id="lPej12Bno3lJLsPGT7YB-248" value="" style="startArrow=none;endArrow=block;exitX=1;exitY=0.49;entryX=0;entryY=0.5;rounded=0;entryDx=0;entryDy=0;" parent="1" source="lPej12Bno3lJLsPGT7YB-153" target="lPej12Bno3lJLsPGT7YB-186" edge="1">
          <mxGeometry relative="1" as="geometry" />
        </mxCell>
        <mxCell id="lPej12Bno3lJLsPGT7YB-249" value="" style="curved=1;startArrow=none;endArrow=block;exitX=0;exitY=0.5;entryX=1;entryY=0.5;rounded=0;entryDx=0;entryDy=0;exitDx=0;exitDy=0;" parent="1" source="lPej12Bno3lJLsPGT7YB-213" target="lPej12Bno3lJLsPGT7YB-186" edge="1">
          <mxGeometry relative="1" as="geometry">
            <Array as="points" />
          </mxGeometry>
        </mxCell>
        <mxCell id="lPej12Bno3lJLsPGT7YB-250" value="" style="startArrow=none;endArrow=block;exitX=0;exitY=0.5;entryX=1;entryY=0.5;rounded=0;exitDx=0;exitDy=0;entryDx=0;entryDy=0;" parent="1" source="lPej12Bno3lJLsPGT7YB-214" target="lPej12Bno3lJLsPGT7YB-186" edge="1">
          <mxGeometry relative="1" as="geometry" />
        </mxCell>
        <mxCell id="lPej12Bno3lJLsPGT7YB-251" value="" style="startArrow=none;endArrow=block;exitX=1;exitY=0.48;entryX=0;entryY=0.35;rounded=0;" parent="1" source="lPej12Bno3lJLsPGT7YB-154" target="lPej12Bno3lJLsPGT7YB-187" edge="1">
          <mxGeometry relative="1" as="geometry" />
        </mxCell>
        <mxCell id="lPej12Bno3lJLsPGT7YB-253" value="" style="startArrow=none;endArrow=block;exitX=1;exitY=0.25;entryX=0;entryY=0.48;rounded=0;" parent="1" source="lPej12Bno3lJLsPGT7YB-151" target="lPej12Bno3lJLsPGT7YB-188" edge="1">
          <mxGeometry relative="1" as="geometry" />
        </mxCell>
        <mxCell id="lPej12Bno3lJLsPGT7YB-254" value="" style="startArrow=none;endArrow=block;exitX=1;exitY=0.5;entryX=0;entryY=0.49;rounded=0;exitDx=0;exitDy=0;" parent="1" source="lPej12Bno3lJLsPGT7YB-151" target="lPej12Bno3lJLsPGT7YB-189" edge="1">
          <mxGeometry relative="1" as="geometry" />
        </mxCell>
        <mxCell id="lPej12Bno3lJLsPGT7YB-255" value="" style="curved=1;startArrow=none;endArrow=block;exitX=1;exitY=0.49;entryX=0;entryY=0.49;rounded=0;" parent="1" source="lPej12Bno3lJLsPGT7YB-150" target="lPej12Bno3lJLsPGT7YB-190" edge="1">
          <mxGeometry relative="1" as="geometry">
            <Array as="points" />
          </mxGeometry>
        </mxCell>
        <mxCell id="lPej12Bno3lJLsPGT7YB-256" value="" style="curved=1;startArrow=none;endArrow=block;exitX=1;exitY=0.48;entryX=0;entryY=0.48;rounded=0;" parent="1" source="lPej12Bno3lJLsPGT7YB-155" target="lPej12Bno3lJLsPGT7YB-191" edge="1">
          <mxGeometry relative="1" as="geometry">
            <Array as="points" />
          </mxGeometry>
        </mxCell>
        <mxCell id="lPej12Bno3lJLsPGT7YB-257" value="" style="curved=1;startArrow=none;endArrow=block;exitX=1;exitY=0.49;entryX=0;entryY=0.49;rounded=0;" parent="1" source="lPej12Bno3lJLsPGT7YB-146" target="lPej12Bno3lJLsPGT7YB-192" edge="1">
          <mxGeometry relative="1" as="geometry">
            <Array as="points" />
          </mxGeometry>
        </mxCell>
        <mxCell id="lPej12Bno3lJLsPGT7YB-258" value="" style="curved=1;startArrow=none;endArrow=block;exitX=1;exitY=0.49;entryX=0;entryY=0.49;rounded=0;" parent="1" source="lPej12Bno3lJLsPGT7YB-156" target="lPej12Bno3lJLsPGT7YB-193" edge="1">
          <mxGeometry relative="1" as="geometry">
            <Array as="points" />
          </mxGeometry>
        </mxCell>
        <mxCell id="lPej12Bno3lJLsPGT7YB-259" value="" style="curved=1;startArrow=none;endArrow=block;exitX=1;exitY=0.48;entryX=0;entryY=0.48;rounded=0;" parent="1" source="lPej12Bno3lJLsPGT7YB-157" target="lPej12Bno3lJLsPGT7YB-194" edge="1">
          <mxGeometry relative="1" as="geometry">
            <Array as="points" />
          </mxGeometry>
        </mxCell>
        <mxCell id="lPej12Bno3lJLsPGT7YB-260" value="" style="startArrow=none;endArrow=block;exitX=1;exitY=0.49;entryX=0;entryY=0.25;rounded=0;entryDx=0;entryDy=0;" parent="1" source="lPej12Bno3lJLsPGT7YB-158" target="lPej12Bno3lJLsPGT7YB-195" edge="1">
          <mxGeometry relative="1" as="geometry" />
        </mxCell>
        <mxCell id="lPej12Bno3lJLsPGT7YB-261" value="" style="curved=1;startArrow=none;endArrow=block;exitX=0;exitY=0.5;entryX=1;entryY=0.25;rounded=0;entryDx=0;entryDy=0;exitDx=0;exitDy=0;" parent="1" source="lPej12Bno3lJLsPGT7YB-216" target="lPej12Bno3lJLsPGT7YB-195" edge="1">
          <mxGeometry relative="1" as="geometry">
            <Array as="points" />
          </mxGeometry>
        </mxCell>
        <mxCell id="lPej12Bno3lJLsPGT7YB-262" value="" style="startArrow=none;endArrow=block;exitX=0;exitY=0.5;entryX=1;entryY=0.5;rounded=0;exitDx=0;exitDy=0;entryDx=0;entryDy=0;" parent="1" source="lPej12Bno3lJLsPGT7YB-217" target="lPej12Bno3lJLsPGT7YB-195" edge="1">
          <mxGeometry relative="1" as="geometry" />
        </mxCell>
        <mxCell id="lPej12Bno3lJLsPGT7YB-263" value="" style="curved=1;startArrow=none;endArrow=block;rounded=0;exitX=0;exitY=0.5;exitDx=0;exitDy=0;fillColor=#d5e8d4;strokeColor=#808080;entryX=1;entryY=0.5;entryDx=0;entryDy=0;" parent="1" source="lPej12Bno3lJLsPGT7YB-218" edge="1" target="lPej12Bno3lJLsPGT7YB-196">
          <mxGeometry relative="1" as="geometry">
            <Array as="points" />
            <mxPoint x="1330" y="2423" as="sourcePoint" />
            <mxPoint x="1480.909090909091" y="2480" as="targetPoint" />
          </mxGeometry>
        </mxCell>
        <mxCell id="lPej12Bno3lJLsPGT7YB-264" value="" style="curved=1;startArrow=none;endArrow=block;exitX=1;exitY=0.48;entryX=0;entryY=0.48;rounded=0;" parent="1" source="lPej12Bno3lJLsPGT7YB-159" target="lPej12Bno3lJLsPGT7YB-197" edge="1">
          <mxGeometry relative="1" as="geometry">
            <Array as="points" />
          </mxGeometry>
        </mxCell>
        <mxCell id="lPej12Bno3lJLsPGT7YB-265" value="" style="curved=1;startArrow=none;endArrow=block;exitX=1;exitY=0.48;entryX=0;entryY=0.48;rounded=0;" parent="1" source="lPej12Bno3lJLsPGT7YB-161" target="lPej12Bno3lJLsPGT7YB-198" edge="1">
          <mxGeometry relative="1" as="geometry">
            <Array as="points" />
          </mxGeometry>
        </mxCell>
        <mxCell id="lPej12Bno3lJLsPGT7YB-266" value="" style="curved=1;startArrow=none;endArrow=block;exitX=1;exitY=0.49;entryX=0;entryY=0.49;rounded=0;" parent="1" source="lPej12Bno3lJLsPGT7YB-160" target="lPej12Bno3lJLsPGT7YB-199" edge="1">
          <mxGeometry relative="1" as="geometry">
            <Array as="points" />
          </mxGeometry>
        </mxCell>
        <mxCell id="lPej12Bno3lJLsPGT7YB-267" value="" style="curved=1;startArrow=none;endArrow=block;exitX=1;exitY=0.49;entryX=0;entryY=0.49;rounded=0;" parent="1" source="lPej12Bno3lJLsPGT7YB-162" target="lPej12Bno3lJLsPGT7YB-200" edge="1">
          <mxGeometry relative="1" as="geometry">
            <Array as="points" />
          </mxGeometry>
        </mxCell>
        <mxCell id="lPej12Bno3lJLsPGT7YB-268" value="" style="curved=1;startArrow=none;endArrow=block;exitX=1;exitY=0.48;entryX=0;entryY=0.48;rounded=0;" parent="1" source="lPej12Bno3lJLsPGT7YB-163" target="lPej12Bno3lJLsPGT7YB-201" edge="1">
          <mxGeometry relative="1" as="geometry">
            <Array as="points" />
          </mxGeometry>
        </mxCell>
        <mxCell id="lPej12Bno3lJLsPGT7YB-270" value="" style="startArrow=none;endArrow=block;exitX=1;exitY=0.81;entryX=0;entryY=0.32;rounded=0;" parent="1" source="lPej12Bno3lJLsPGT7YB-166" target="lPej12Bno3lJLsPGT7YB-203" edge="1">
          <mxGeometry relative="1" as="geometry" />
        </mxCell>
        <mxCell id="lPej12Bno3lJLsPGT7YB-271" value="" style="startArrow=none;endArrow=block;exitX=1;exitY=0.5;entryX=0;entryY=0.75;rounded=0;exitDx=0;exitDy=0;entryDx=0;entryDy=0;" parent="1" source="kNLLdn3Lz1MCtUCLmeeq-9" target="lPej12Bno3lJLsPGT7YB-203" edge="1">
          <mxGeometry relative="1" as="geometry" />
        </mxCell>
        <mxCell id="lPej12Bno3lJLsPGT7YB-273" value="" style="curved=1;startArrow=none;endArrow=block;exitX=1;exitY=0.49;entryX=0;entryY=0.49;rounded=0;" parent="1" source="lPej12Bno3lJLsPGT7YB-168" target="lPej12Bno3lJLsPGT7YB-205" edge="1">
          <mxGeometry relative="1" as="geometry">
            <Array as="points" />
          </mxGeometry>
        </mxCell>
        <mxCell id="lPej12Bno3lJLsPGT7YB-274" value="" style="curved=1;startArrow=none;endArrow=block;exitX=1;exitY=0.48;entryX=0;entryY=0.48;rounded=0;" parent="1" source="lPej12Bno3lJLsPGT7YB-169" target="lPej12Bno3lJLsPGT7YB-206" edge="1">
          <mxGeometry relative="1" as="geometry">
            <Array as="points" />
          </mxGeometry>
        </mxCell>
        <mxCell id="lPej12Bno3lJLsPGT7YB-276" value="LG 1-10: Differentiate Types of IT Systems" style="whiteSpace=wrap;strokeWidth=2;fillColor=#fff2cc;strokeColor=#d6b656;" parent="1" vertex="1">
          <mxGeometry x="-460" y="850" width="410" height="34" as="geometry" />
        </mxCell>
        <mxCell id="lPej12Bno3lJLsPGT7YB-277" value="Removed" style="whiteSpace=wrap;strokeWidth=2;fillColor=#f8cecc;strokeColor=#b85450;" parent="1" vertex="1">
          <mxGeometry x="-650" y="873" width="88" height="34" as="geometry" />
        </mxCell>
        <mxCell id="lPej12Bno3lJLsPGT7YB-278" value="" style="curved=1;startArrow=none;endArrow=block;exitX=0;exitY=0.5;entryX=1;entryY=0.5;rounded=0;entryDx=0;entryDy=0;exitDx=0;exitDy=0;" parent="1" source="lPej12Bno3lJLsPGT7YB-276" target="lPej12Bno3lJLsPGT7YB-277" edge="1">
          <mxGeometry relative="1" as="geometry">
            <Array as="points" />
          </mxGeometry>
        </mxCell>
        <mxCell id="lPej12Bno3lJLsPGT7YB-281" style="rounded=0;orthogonalLoop=1;jettySize=auto;html=1;entryX=0;entryY=0.5;entryDx=0;entryDy=0;" parent="1" source="lPej12Bno3lJLsPGT7YB-280" target="lPej12Bno3lJLsPGT7YB-197" edge="1">
          <mxGeometry relative="1" as="geometry">
            <mxPoint x="890" y="2399.9999999999995" as="targetPoint" />
          </mxGeometry>
        </mxCell>
        <mxCell id="lPej12Bno3lJLsPGT7YB-280" value="LG 3-5: Explain and Apply Context View of Systems" style="whiteSpace=wrap;strokeWidth=2;fillColor=#d5e8d4;strokeColor=#82b366;" parent="1" vertex="1">
          <mxGeometry x="90" y="2440" width="440" height="40" as="geometry" />
        </mxCell>
        <mxCell id="lPej12Bno3lJLsPGT7YB-284" style="rounded=0;orthogonalLoop=1;jettySize=auto;html=1;entryX=0;entryY=0.5;entryDx=0;entryDy=0;" parent="1" source="lPej12Bno3lJLsPGT7YB-282" target="lPej12Bno3lJLsPGT7YB-181" edge="1">
          <mxGeometry relative="1" as="geometry">
            <mxPoint x="650" y="1429.9999999999995" as="targetPoint" />
          </mxGeometry>
        </mxCell>
        <mxCell id="lPej12Bno3lJLsPGT7YB-282" value="LG 2-8: Achieve Quality Requirements with Appropriate Approaches and Techniques" style="whiteSpace=wrap;strokeWidth=2;fillColor=#ffe6cc;strokeColor=#d79b00;" parent="1" vertex="1">
          <mxGeometry x="67" y="1110" width="406" height="50" as="geometry" />
        </mxCell>
        <mxCell id="lPej12Bno3lJLsPGT7YB-283" value="" style="dashed=1;dashPattern=2 3;startArrow=none;endArrow=block;exitX=1;exitY=0.5;entryX=0;entryY=0.75;rounded=0;exitDx=0;exitDy=0;entryDx=0;entryDy=0;" parent="1" source="lPej12Bno3lJLsPGT7YB-282" target="lPej12Bno3lJLsPGT7YB-179" edge="1">
          <mxGeometry relative="1" as="geometry">
            <mxPoint x="763" y="1658" as="targetPoint" />
          </mxGeometry>
        </mxCell>
        <mxCell id="lPej12Bno3lJLsPGT7YB-285" value="New: Reasons for Architecture Analysis" style="whiteSpace=wrap;strokeWidth=2;fillColor=#d5e8d4;strokeColor=#82b366;" parent="1" vertex="1">
          <mxGeometry x="1530" y="2940" width="293" height="34" as="geometry" />
        </mxCell>
        <mxCell id="lPej12Bno3lJLsPGT7YB-286" value="LG 05-01: Know the Reasons for Architecture Analysis" style="whiteSpace=wrap;strokeWidth=2;" parent="1" vertex="1">
          <mxGeometry x="922" y="2940" width="518" height="34" as="geometry" />
        </mxCell>
        <mxCell id="lPej12Bno3lJLsPGT7YB-287" value="" style="curved=1;startArrow=none;endArrow=block;exitX=0;exitY=0.5;rounded=0;exitDx=0;exitDy=0;entryX=1;entryY=0.5;entryDx=0;entryDy=0;" parent="1" source="lPej12Bno3lJLsPGT7YB-285" edge="1" target="lPej12Bno3lJLsPGT7YB-286">
          <mxGeometry relative="1" as="geometry">
            <Array as="points" />
            <mxPoint x="1330" y="3057" as="targetPoint" />
          </mxGeometry>
        </mxCell>
        <mxCell id="lPej12Bno3lJLsPGT7YB-288" value="New: Evaluate Conformance to Architectural Decisions" style="whiteSpace=wrap;strokeWidth=2;fillColor=#d5e8d4;strokeColor=#82b366;" parent="1" vertex="1">
          <mxGeometry x="1528" y="3100" width="406" height="34" as="geometry" />
        </mxCell>
        <mxCell id="lPej12Bno3lJLsPGT7YB-289" value="LG 05-03: Evaluate Conformance to Architectural Decisions" style="whiteSpace=wrap;strokeWidth=2;" parent="1" vertex="1">
          <mxGeometry x="921.5" y="3100" width="518.5" height="34" as="geometry" />
        </mxCell>
        <mxCell id="lPej12Bno3lJLsPGT7YB-290" value="" style="curved=1;startArrow=none;endArrow=block;rounded=0;entryX=1;entryY=0.5;entryDx=0;entryDy=0;" parent="1" source="lPej12Bno3lJLsPGT7YB-288" target="lPej12Bno3lJLsPGT7YB-289" edge="1">
          <mxGeometry relative="1" as="geometry">
            <Array as="points" />
            <mxPoint x="1330" y="4520" as="sourcePoint" />
            <mxPoint x="1140" y="4517" as="targetPoint" />
          </mxGeometry>
        </mxCell>
        <mxCell id="lPej12Bno3lJLsPGT7YB-293" value="" style="curved=1;startArrow=none;endArrow=block;exitX=0;exitY=0.5;rounded=0;exitDx=0;exitDy=0;entryX=0.852;entryY=0.151;entryDx=0;entryDy=0;entryPerimeter=0;" parent="1" target="lPej12Bno3lJLsPGT7YB-277" edge="1">
          <mxGeometry relative="1" as="geometry">
            <Array as="points" />
            <mxPoint x="-460" y="803" as="sourcePoint" />
            <mxPoint x="-562" y="803" as="targetPoint" />
          </mxGeometry>
        </mxCell>
        <mxCell id="lPej12Bno3lJLsPGT7YB-294" value="V 2023.1" style="text;html=1;align=center;verticalAlign=middle;whiteSpace=wrap;rounded=0;fontSize=40;" parent="1" vertex="1">
          <mxGeometry x="77" y="40" width="403" height="30" as="geometry" />
        </mxCell>
        <mxCell id="lPej12Bno3lJLsPGT7YB-295" value="1: Basic Concepts" style="rounded=1;whiteSpace=wrap;html=1;fontSize=16;align=left;spacingLeft=9;fillColor=#fff2cc;strokeColor=#d6b656;" parent="1" vertex="1">
          <mxGeometry x="-479" y="240" width="220" height="45" as="geometry" />
        </mxCell>
        <mxCell id="kNLLdn3Lz1MCtUCLmeeq-1" value="2: Design and Developent" style="rounded=1;whiteSpace=wrap;html=1;fontSize=16;align=left;spacingLeft=9;fillColor=#ffe6cc;strokeColor=#d79b00;" vertex="1" parent="1">
          <mxGeometry x="-479" y="305" width="220" height="45" as="geometry" />
        </mxCell>
        <mxCell id="kNLLdn3Lz1MCtUCLmeeq-2" value="3: Specification and Communication" style="rounded=1;whiteSpace=wrap;html=1;fontSize=16;align=left;spacingLeft=9;fillColor=#d5e8d4;strokeColor=#82b366;" vertex="1" parent="1">
          <mxGeometry x="-480" y="370" width="221" height="45" as="geometry" />
        </mxCell>
        <mxCell id="kNLLdn3Lz1MCtUCLmeeq-3" value="4: Software Architecture &lt;br&gt;and Quality" style="rounded=1;whiteSpace=wrap;html=1;fontSize=16;align=left;spacingLeft=9;fillColor=#dae8fc;strokeColor=#6c8ebf;" vertex="1" parent="1">
          <mxGeometry x="-479" y="435" width="220" height="45" as="geometry" />
        </mxCell>
        <mxCell id="kNLLdn3Lz1MCtUCLmeeq-4" value="5: Examples" style="rounded=1;whiteSpace=wrap;html=1;fontSize=16;align=left;spacingLeft=9;fillColor=#f5f5f5;fontColor=#333333;strokeColor=#666666;" vertex="1" parent="1">
          <mxGeometry x="-479" y="495" width="220" height="45" as="geometry" />
        </mxCell>
        <mxCell id="kNLLdn3Lz1MCtUCLmeeq-8" value="LG 4-3: Qualitative Analysis of Software Architectures (part)" style="whiteSpace=wrap;strokeWidth=2;fillColor=#dae8fc;strokeColor=#6c8ebf;" vertex="1" parent="1">
          <mxGeometry x="77" y="980" width="400" height="34" as="geometry" />
        </mxCell>
        <mxCell id="kNLLdn3Lz1MCtUCLmeeq-9" value="LG 4-4: Quantitative Evaluation of Software Architectures (part)" style="whiteSpace=wrap;strokeWidth=2;fillColor=#dae8fc;strokeColor=#6c8ebf;" vertex="1" parent="1">
          <mxGeometry x="84" y="3066" width="430" height="34" as="geometry" />
        </mxCell>
        <mxCell id="kNLLdn3Lz1MCtUCLmeeq-10" value="V 2025.RC3" style="text;html=1;align=center;verticalAlign=middle;whiteSpace=wrap;rounded=0;fontSize=40;" vertex="1" parent="1">
          <mxGeometry x="933.25" y="40" width="403" height="30" as="geometry" />
        </mxCell>
      </root>
    </mxGraphModel>
  </diagram>
</mxfile>
